# xmcd
#
# Track frame offsets: 
#        150
#        16133
#        33900
#        49434
#        68699
#        82509
#        100084
#        117185
#        132575
#        152886
#        164686
#        176074
#        191287
#        206845
#        225128
#        246392
#        264623
#        278773
#        297277
#        313241
#        326628
#        346294
#
# Disc length: 4799 seconds
#
# Revision: 1
# Processed by: cddbd v1.5.2PL0 Copyright (c) Steve Scherf et al.
# Submitted via: ExactAudioCopy v0.99pb4
#
DISCID=3b12bd16
DTITLE=Лев Лещенко - Grand Collection
DYEAR=2005
DGENRE=Retro
TTITLE0=Родная Земля
TTITLE1=День Победы
TTITLE2=Я Сегодня До Зари Встану
TTITLE3=Старые Качели
TTITLE4=Татьянин День
TTITLE5=Где Же Ты Была
TTITLE6=Соловьиная Роща
TTITLE7=Родительский Дом
TTITLE8=Где Мой Дом Родной
TTITLE9=Почему Ты Мне Не Встретилась
TTITLE10=Песня О Вечном Движении
TTITLE11=Напиши Мне Письмо
TTITLE12=Ни Минуты Покоя
TTITLE13=Городские Цветы
TTITLE14=Нам Не Жить Друг Без Друга
TTITLE15=Горький Мёд
TTITLE16=Не Плачь, Девчонка
TTITLE17=Прощай
TTITLE18=Свадебные Кони
TTITLE19=До Свиданья, Москва
TTITLE20=Притяжение Земли
TTITLE21=Качели
EXTD=
EXTT0=
EXTT1=
EXTT2=
EXTT3=
EXTT4=
EXTT5=
EXTT6=
EXTT7=
EXTT8=
EXTT9=
EXTT10=
EXTT11=
EXTT12=
EXTT13=
EXTT14=
EXTT15=
EXTT16=
EXTT17=
EXTT18=
EXTT19=
EXTT20=
EXTT21=
PLAYORDER=
